<svg width="21" height="14" viewBox="0 0 21 14" fill="none" xmlns="http://www.w3.org/2000/svg">
<path d="M20.0909 6.09297H3.10356L7.15699 2.04832C7.5121 1.69421 7.5121 1.11979 7.15699 0.765736C6.80188 0.411421 6.22618 0.411421 5.87159 0.765736L0.26633 6.3586C-0.0887766 6.71271 -0.0887766 7.28719 0.26633 7.64119L5.87159 13.2343C6.04909 13.4115 6.28172 13.5 6.51429 13.5C6.74687 13.5 6.97949 13.4115 7.15699 13.2343C7.5121 12.8802 7.5121 12.3058 7.15699 11.9518L3.10356 7.90692H20.0909C20.5929 7.90692 21 7.5008 21 6.99992C21 6.49904 20.593 6.09297 20.0909 6.09297Z" fill="#FD5842"/>
</svg>
