<svg width="843" height="104" viewBox="0 0 843 104" fill="none" xmlns="http://www.w3.org/2000/svg">
<g filter="url(#filter0_i)">
<path fill-rule="evenodd" clip-rule="evenodd" d="M254.562 36.6838C299.089 42.8828 323.323 80.6752 378.538 77.9352C417.102 76.0208 434.453 54.0464 477.559 54.8386C505.392 55.3502 517.457 68.1228 543.887 71.2413C631.14 81.5365 681.223 -13.0836 754.796 2.66111C799.347 12.1957 834.514 58.2936 841.18 99.6133C860.905 221.878 639.01 382.529 424.131 409.918C249.226 432.211 18.101 371.629 1.1473 260.131C-13.8712 161.362 138.83 20.5729 254.562 36.6838Z" fill="#9A98D1"/>
<path fill-rule="evenodd" clip-rule="evenodd" d="M254.562 36.6838C299.089 42.8828 323.323 80.6752 378.538 77.9352C417.102 76.0208 434.453 54.0464 477.559 54.8386C505.392 55.3502 517.457 68.1228 543.887 71.2413C631.14 81.5365 681.223 -13.0836 754.796 2.66111C799.347 12.1957 834.514 58.2936 841.18 99.6133C860.905 221.878 639.01 382.529 424.131 409.918C249.226 432.211 18.101 371.629 1.1473 260.131C-13.8712 161.362 138.83 20.5729 254.562 36.6838Z" fill="url(#paint0_linear)"/>
</g>
<defs>
<filter id="filter0_i" x="0.121094" y="0.888672" width="862.685" height="426.308" filterUnits="userSpaceOnUse" color-interpolation-filters="sRGB">
<feFlood flood-opacity="0" result="BackgroundImageFix"/>
<feBlend mode="normal" in="SourceGraphic" in2="BackgroundImageFix" result="shape"/>
<feColorMatrix in="SourceAlpha" type="matrix" values="0 0 0 0 0 0 0 0 0 0 0 0 0 0 0 0 0 0 127 0" result="hardAlpha"/>
<feOffset dx="20.4" dy="12.7"/>
<feGaussianBlur stdDeviation="53"/>
<feComposite in2="hardAlpha" operator="arithmetic" k2="-1" k3="1"/>
<feColorMatrix type="matrix" values="0 0 0 0 0 0 0 0 0 0 0 0 0 0 0 0 0 0 0.1 0"/>
<feBlend mode="normal" in2="shape" result="effect1_innerShadow"/>
</filter>
<linearGradient id="paint0_linear" x1="2339.03" y1="10631.6" x2="10927.3" y2="-1254.61" gradientUnits="userSpaceOnUse">
<stop stop-color="#221E9C"/>
<stop offset="1" stop-color="#3935B8"/>
</linearGradient>
</defs>
</svg>
