<svg width="117" height="64" viewBox="0 0 117 64" fill="none" xmlns="http://www.w3.org/2000/svg">
<g opacity="0.3" filter="url(#filter0_i)">
<path fill-rule="evenodd" clip-rule="evenodd" d="M36.8972 0.217492C43.4614 -0.0421706 51.1845 1.86352 57.5484 6.06937C60.7981 8.21711 64.0799 12.3408 69.2323 14.6231C72.1571 15.9186 79.535 17.3119 87.9824 15.9911C89.4245 15.7656 101.149 10.9931 106.473 13.0348C113.488 15.7254 117.849 25.709 116.722 33.7566C114.155 52.0952 82.614 63.1737 58.8719 63.8452C38.3525 64.4257 3.84652 57.7955 0.574473 38.4091C-2.11613 22.4679 16.8185 1.01181 36.8972 0.217492Z" fill="#9A98D1"/>
<path fill-rule="evenodd" clip-rule="evenodd" d="M36.8972 0.217492C43.4614 -0.0421706 51.1845 1.86352 57.5484 6.06937C60.7981 8.21711 64.0799 12.3408 69.2323 14.6231C72.1571 15.9186 79.535 17.3119 87.9824 15.9911C89.4245 15.7656 101.149 10.9931 106.473 13.0348C113.488 15.7254 117.849 25.709 116.722 33.7566C114.155 52.0952 82.614 63.1737 58.8719 63.8452C38.3525 64.4257 3.84652 57.7955 0.574473 38.4091C-2.11613 22.4679 16.8185 1.01181 36.8972 0.217492Z" fill="url(#paint0_linear)"/>
</g>
<defs>
<filter id="filter0_i" x="0.316406" y="0.194336" width="136.98" height="76.3857" filterUnits="userSpaceOnUse" color-interpolation-filters="sRGB">
<feFlood flood-opacity="0" result="BackgroundImageFix"/>
<feBlend mode="normal" in="SourceGraphic" in2="BackgroundImageFix" result="shape"/>
<feColorMatrix in="SourceAlpha" type="matrix" values="0 0 0 0 0 0 0 0 0 0 0 0 0 0 0 0 0 0 127 0" result="hardAlpha"/>
<feOffset dx="20.4" dy="12.7"/>
<feGaussianBlur stdDeviation="53"/>
<feComposite in2="hardAlpha" operator="arithmetic" k2="-1" k3="1"/>
<feColorMatrix type="matrix" values="0 0 0 0 0 0 0 0 0 0 0 0 0 0 0 0 0 0 0.1 0"/>
<feBlend mode="normal" in2="shape" result="effect1_innerShadow"/>
</filter>
<linearGradient id="paint0_linear" x1="-1867.45" y1="-669.636" x2="-1328.64" y2="1537.72" gradientUnits="userSpaceOnUse">
<stop stop-color="#100640"/>
<stop offset="1" stop-color="#3935B8"/>
</linearGradient>
</defs>
</svg>
