<svg width="289" height="590" viewBox="0 0 289 590" fill="none" xmlns="http://www.w3.org/2000/svg">
<g filter="url(#filter0_i)">
<path fill-rule="evenodd" clip-rule="evenodd" d="M126.797 482.415C295.276 351.011 532.481 544.498 746.726 420.34C926.186 316.339 927.351 45.4019 1103.09 5.30491C1187.93 -14.0519 1283.14 25.0352 1330.52 85.6738C1472.19 266.991 1255.19 727.371 930.171 964.562C724.024 1115 305.922 1299.01 107.802 1099.92C-44.0233 947.355 -31.4247 605.821 126.797 482.415Z" fill="#9A98D1"/>
<path fill-rule="evenodd" clip-rule="evenodd" d="M126.797 482.415C295.276 351.011 532.481 544.498 746.726 420.34C926.186 316.339 927.351 45.4019 1103.09 5.30491C1187.93 -14.0519 1283.14 25.0352 1330.52 85.6738C1472.19 266.991 1255.19 727.371 930.171 964.562C724.024 1115 305.922 1299.01 107.802 1099.92C-44.0233 947.355 -31.4247 605.821 126.797 482.415Z" fill="url(#paint0_linear)"/>
</g>
<defs>
<filter id="filter0_i" x="-15.2695" y="-29.6855" width="1389.92" height="1216.73" filterUnits="userSpaceOnUse" color-interpolation-filters="sRGB">
<feFlood flood-opacity="0" result="BackgroundImageFix"/>
<feBlend mode="normal" in="SourceGraphic" in2="BackgroundImageFix" result="shape"/>
<feColorMatrix in="SourceAlpha" type="matrix" values="0 0 0 0 0 0 0 0 0 0 0 0 0 0 0 0 0 0 127 0" result="hardAlpha"/>
<feOffset dx="-16" dy="-30"/>
<feGaussianBlur stdDeviation="66.5"/>
<feComposite in2="hardAlpha" operator="arithmetic" k2="-1" k3="1"/>
<feColorMatrix type="matrix" values="0 0 0 0 0 0 0 0 0 0 0 0 0 0 0 0 0 0 0.16 0"/>
<feBlend mode="normal" in2="shape" result="effect1_innerShadow"/>
</filter>
<linearGradient id="paint0_linear" x1="16695.7" y1="15792.5" x2="17834.7" y2="-13207.4" gradientUnits="userSpaceOnUse">
<stop stop-color="#1A105E"/>
<stop offset="1" stop-color="#392682"/>
</linearGradient>
</defs>
</svg>
