<svg width="31" height="44" viewBox="0 0 31 44" fill="none" xmlns="http://www.w3.org/2000/svg">
<path fill-rule="evenodd" clip-rule="evenodd" d="M18.875 17.526L17.448 16.103L23.797 9.771H15.134C7.902 9.771 2.018 15.64 2.018 22.856H0C0 14.53 6.789 7.76 15.134 7.76H23.797L17.448 1.424L18.875 0L26.946 8.052L26.233 8.766L26.946 9.478L18.875 17.526ZM15.8472 35.9378H6.88816L13.5332 42.5648L12.1062 43.9888L4.03516 35.9378L4.74816 35.2278L4.03516 34.5158L12.1062 26.4628L13.5332 27.8868L7.47916 33.9238H15.8472C23.0792 33.9238 28.9632 27.8868 28.9632 20.8398H30.9812C30.9812 29.8988 24.1922 35.9378 15.8472 35.9378Z" fill="white"/>
</svg>
