<svg width="751" height="193" viewBox="0 0 751 193" fill="none" xmlns="http://www.w3.org/2000/svg">
<path d="M186.373 56.1787H234.604C237.559 56.122 240.494 56.6796 243.221 57.8159C245.949 58.9522 248.41 60.6425 250.448 62.7793C252.576 64.8237 254.262 67.2817 255.401 70.0017C256.54 72.7217 257.108 75.6459 257.071 78.5937V130.045C257.113 132.998 256.546 135.928 255.407 138.654C254.268 141.38 252.58 143.843 250.448 145.891C248.41 148.028 245.949 149.718 243.221 150.854C240.494 151.99 237.559 152.548 234.604 152.491H186.373V56.1787ZM237.775 130.097V78.5937C237.777 77.7722 237.454 76.983 236.878 76.397C236.59 76.083 236.238 75.8348 235.846 75.6695C235.453 75.5042 235.03 75.4256 234.604 75.4392H205.67V133.2H234.604C235.03 133.213 235.453 133.135 235.846 132.969C236.238 132.804 236.59 132.556 236.878 132.242C237.47 131.663 237.807 130.873 237.816 130.045L237.775 130.097Z" fill="white"/>
<path d="M319.08 152.46H293.307C287.361 152.427 281.668 150.055 277.463 145.859C273.259 141.662 270.882 135.98 270.85 130.045V56.1787H290.136V130.097C290.178 130.912 290.522 131.682 291.1 132.258C291.677 132.835 292.449 133.178 293.265 133.22H319.039C319.464 133.233 319.888 133.154 320.28 132.989C320.673 132.824 321.025 132.576 321.312 132.263C321.889 131.677 322.212 130.887 322.21 130.066V56.1787H341.496V130.097C341.537 133.038 340.976 135.956 339.846 138.672C338.716 141.388 337.041 143.845 334.924 145.891C332.884 148.022 330.421 149.706 327.694 150.837C324.966 151.968 322.033 152.521 319.08 152.46Z" fill="white"/>
<path d="M403.547 152.459H377.784C371.837 152.426 366.143 150.055 361.937 145.858C357.731 141.662 355.352 135.98 355.316 130.044V78.5928C355.352 72.6571 357.731 66.9748 361.937 62.7786C366.143 58.5823 371.837 56.2106 377.784 56.1778H403.547C406.504 56.1209 409.44 56.6783 412.17 57.8146C414.899 58.9509 417.362 60.6413 419.402 62.7784C421.528 64.8233 423.212 67.2816 424.35 70.0017C425.487 72.7217 426.054 75.6456 426.015 78.5928V88.223H406.718V78.5928C406.72 77.7713 406.398 76.982 405.821 76.396C405.534 76.0821 405.182 75.8339 404.789 75.6685C404.397 75.5032 403.973 75.4246 403.547 75.4382H377.784C376.966 75.4762 376.192 75.8175 375.613 76.3952C375.035 76.9729 374.693 77.7454 374.655 78.5615V130.013C374.693 130.829 375.035 131.602 375.613 132.179C376.192 132.757 376.966 133.098 377.784 133.136H403.547C403.961 133.146 404.372 133.072 404.756 132.919C405.141 132.765 405.49 132.536 405.782 132.244C406.075 131.952 406.305 131.603 406.459 131.22C406.612 130.836 406.686 130.426 406.676 130.013V120.383H425.973V130.013C426.026 132.968 425.47 135.902 424.34 138.633C423.209 141.364 421.528 143.834 419.402 145.89C417.359 148.021 414.895 149.706 412.166 150.837C409.436 151.968 406.502 152.52 403.547 152.459Z" fill="white"/>
<path d="M490.236 61.5608L509.532 100.082C510.209 101.401 510.542 102.869 510.502 104.35V152.491H491.206V126.776H459.09V152.491H439.794V104.319C439.756 102.839 440.086 101.372 440.754 100.05L460.05 61.5295C460.779 59.8614 462 58.4546 463.551 57.4967C465.101 56.5388 466.907 56.0753 468.728 56.1678H481.547C483.369 56.0988 485.17 56.5755 486.719 57.5366C488.267 58.4977 489.492 59.8992 490.236 61.5608ZM459.101 106.682V107.505H491.206V106.682L475.633 75.4387H474.674L459.101 106.682Z" fill="white"/>
<path d="M584.621 56.1787V75.4391H558.993V152.481H539.697V75.4391H513.934V56.1787H584.621Z" fill="white"/>
<path d="M645.349 152.46H619.575C613.627 152.43 607.932 150.059 603.725 145.862C599.518 141.665 597.14 135.982 597.107 130.045V56.1787H616.446V130.097C616.484 130.913 616.826 131.686 617.404 132.263C617.983 132.841 618.757 133.182 619.575 133.22H645.338C645.764 133.234 646.188 133.155 646.58 132.99C646.973 132.825 647.325 132.577 647.612 132.263C648.189 131.677 648.511 130.887 648.509 130.066V56.1787H667.806V130.097C667.841 133.04 667.273 135.958 666.138 138.674C665.003 141.39 663.323 143.846 661.203 145.891C659.16 148.021 656.695 149.705 653.966 150.836C651.237 151.967 648.303 152.52 645.349 152.46Z" fill="white"/>
<path d="M750.999 78.5928V91.5233C751.032 95.4347 750.008 99.2827 748.037 102.663C746.12 105.992 743.394 108.785 740.109 110.784L748.245 118.894C750.016 120.749 751.003 123.213 750.999 125.776V152.459H731.702V129.763L715.994 113.949H699.597V152.47H680.301V56.1778H728.532C731.488 56.1209 734.425 56.6783 737.154 57.8146C739.883 58.9509 742.346 60.6413 744.386 62.7784C746.513 64.8233 748.197 67.2816 749.334 70.0017C750.472 72.7217 751.038 75.6456 750.999 78.5928ZM731.702 91.5233V78.5928C731.705 77.7713 731.382 76.982 730.805 76.396C730.518 76.0821 730.166 75.8339 729.774 75.6685C729.381 75.5032 728.957 75.4246 728.532 75.4382H699.597V94.6882H728.532C728.957 94.6998 729.38 94.6203 729.772 94.4551C730.165 94.2898 730.517 94.0428 730.805 93.7304C731.385 93.1419 731.707 92.3484 731.702 91.5233Z" fill="white"/>
<path fill-rule="evenodd" clip-rule="evenodd" d="M140.812 22.9147L101.176 0V48.5259L70.4478 30.8271L0 71.3781V152.459L70.4165 193L140.812 152.459V74.6056V22.9147ZM100.571 129.336L70.4165 146.744L40.2618 129.336V94.5011L70.4165 77.0834L100.571 94.5011V129.336Z" fill="white"/>
</svg>
