<svg width="565" height="97" viewBox="0 0 565 97" fill="none" xmlns="http://www.w3.org/2000/svg">
<path d="M0.373047 0.178244H48.6038C51.559 0.121552 54.4936 0.679087 57.2213 1.81542C59.9489 2.95176 62.4099 4.64204 64.4478 6.77884C66.5759 8.8232 68.2615 11.2812 69.4007 14.0012C70.5399 16.7212 71.1084 19.6454 71.0712 22.5932V74.0446C71.1127 76.9977 70.5463 79.9278 69.407 82.6535C68.2676 85.3792 66.5797 87.8423 64.4478 89.8902C62.4099 92.027 59.9489 93.7173 57.2213 94.8537C54.4936 95.99 51.559 96.5475 48.6038 96.4908H0.373047V0.178244ZM51.7747 74.0967V22.5932C51.7768 21.7717 51.4545 20.9825 50.8777 20.3965C50.5904 20.0825 50.2384 19.8343 49.8459 19.669C49.4533 19.5037 49.0296 19.4251 48.6038 19.4387H19.6695V77.1992H48.6038C49.0296 77.2128 49.4533 77.1342 49.8459 76.9689C50.2384 76.8035 50.5904 76.5553 50.8777 76.2414C51.4698 75.6622 51.8074 74.8721 51.8164 74.0446L51.7747 74.0967Z" fill="white"/>
<path d="M133.08 96.4591H107.307C101.361 96.4263 95.6678 94.0542 91.4634 89.8577C87.259 85.6611 84.8825 79.9788 84.8496 74.0441V0.177734H104.136V74.0962C104.178 74.9107 104.522 75.6806 105.1 76.2574C105.677 76.8341 106.449 77.1769 107.265 77.2195H133.039C133.464 77.2324 133.888 77.1535 134.28 76.9882C134.673 76.8229 135.025 76.5751 135.312 76.2617C135.889 75.6757 136.212 74.8864 136.21 74.0649V0.177734H155.496V74.0962C155.537 77.0369 154.976 79.955 153.846 82.671C152.716 85.3871 151.041 87.8437 148.924 89.8897C146.884 92.0209 144.421 93.7054 141.694 94.8363C138.966 95.9672 136.033 96.5198 133.08 96.4591Z" fill="white"/>
<path d="M217.547 96.4592H191.784C185.837 96.4264 180.143 94.0546 175.937 89.8584C171.731 85.6621 169.352 79.9798 169.316 74.0442V22.5928C169.352 16.6571 171.731 10.9748 175.937 6.77857C180.143 2.58233 185.837 0.210559 191.784 0.17778H217.547C220.504 0.12091 223.44 0.678322 226.17 1.81463C228.899 2.95093 231.362 4.64129 233.402 6.77838C235.528 8.82325 237.212 11.2816 238.35 14.0017C239.487 16.7217 240.054 19.6456 240.015 22.5928V32.223H220.718V22.5928C220.72 21.7713 220.398 20.982 219.821 20.396C219.534 20.0821 219.182 19.8339 218.789 19.6685C218.397 19.5032 217.973 19.4246 217.547 19.4382H191.784C190.966 19.4762 190.192 19.8175 189.613 20.3952C189.035 20.9729 188.693 21.7454 188.655 22.5615V74.0129C188.693 74.829 189.035 75.6016 189.613 76.1793C190.192 76.757 190.966 77.0982 191.784 77.1362H217.547C217.961 77.1462 218.372 77.0723 218.756 76.9188C219.141 76.7654 219.49 76.5357 219.782 76.2437C220.075 75.9517 220.305 75.6033 220.459 75.2199C220.612 74.8364 220.686 74.4258 220.676 74.0129V64.3827H239.973V74.0129C240.026 76.9676 239.47 79.9016 238.34 82.6328C237.209 85.364 235.528 87.8341 233.402 89.8898C231.359 92.0212 228.895 93.7058 226.166 94.8366C223.436 95.9675 220.502 96.52 217.547 96.4592Z" fill="white"/>
<path d="M304.235 5.56028L323.531 44.0812C324.208 45.4005 324.541 46.8682 324.501 48.3497V96.4904H305.205V70.7751H273.089V96.4904H253.793V48.3185C253.755 46.8384 254.085 45.372 254.753 44.0499L274.049 5.52905C274.778 3.86089 275.999 2.45412 277.55 1.49622C279.1 0.53832 280.906 0.0747753 282.727 0.167357H295.546C297.368 0.0983592 299.169 0.575053 300.718 1.53612C302.266 2.49718 303.491 3.89866 304.235 5.56028ZM273.1 50.6818V51.5042H305.205V50.6818L289.632 19.4382H288.673L273.1 50.6818Z" fill="white"/>
<path d="M398.62 0.177734V19.4382H372.992V96.4799H353.696V19.4382H327.933V0.177734H398.62Z" fill="white"/>
<path d="M459.348 96.4591H433.574C427.626 96.429 421.931 94.0581 417.724 89.8613C413.517 85.6645 411.139 79.9806 411.106 74.0441V0.177734H430.445V74.0962C430.483 74.9123 430.825 75.6848 431.403 76.2625C431.982 76.8402 432.756 77.1815 433.574 77.2195H459.337C459.763 77.2331 460.187 77.1545 460.579 76.9892C460.972 76.8238 461.324 76.5756 461.611 76.2617C462.188 75.6757 462.51 74.8864 462.508 74.0649V0.177734H481.805V74.0962C481.84 77.0388 481.272 79.9575 480.137 82.6733C479.002 85.3892 477.322 87.8449 475.202 89.8897C473.159 92.0201 470.694 93.704 467.965 94.8348C465.236 95.9656 462.302 96.5187 459.348 96.4591Z" fill="white"/>
<path d="M564.998 22.5928V35.5233C565.031 39.4347 564.007 43.2827 562.036 46.6631C560.119 49.9919 557.393 52.7849 554.108 54.7837L562.244 62.8939C564.015 64.7486 565.002 67.2135 564.998 69.7756V96.4592H545.701V73.7631L529.993 57.9487H513.596V96.4696H494.3V0.17778H542.531C545.487 0.12091 548.424 0.678322 551.153 1.81463C553.882 2.95093 556.345 4.64129 558.385 6.77838C560.512 8.82325 562.196 11.2816 563.333 14.0017C564.471 16.7217 565.037 19.6456 564.998 22.5928ZM545.701 35.5233V22.5928C545.704 21.7713 545.381 20.982 544.804 20.396C544.517 20.0821 544.165 19.8339 543.773 19.6685C543.38 19.5032 542.956 19.4246 542.531 19.4382H513.596V38.6882H542.531C542.956 38.6998 543.379 38.6203 543.771 38.4551C544.164 38.2898 544.516 38.0428 544.804 37.7304C545.384 37.1419 545.706 36.3484 545.701 35.5233Z" fill="white"/>
</svg>
