<svg width="26" height="21" viewBox="0 0 26 21" fill="none" xmlns="http://www.w3.org/2000/svg">
<path fill-rule="evenodd" clip-rule="evenodd" d="M24.6213 3.32506C24.0733 3.56196 23.5046 3.7489 22.9208 3.88421C23.564 3.2883 24.0476 2.54306 24.3203 1.7111C24.3982 1.47363 24.1336 1.26828 23.9137 1.3954C23.1017 1.86502 22.2271 2.21733 21.314 2.44264C21.2611 2.4557 21.2064 2.46226 21.1516 2.46226C20.9853 2.46226 20.8236 2.40209 20.6964 2.29284C19.7249 1.45806 18.4756 0.998286 17.1784 0.998286C16.617 0.998286 16.0503 1.08359 15.4939 1.25186C13.7699 1.77323 12.4396 3.15976 12.0224 4.87041C11.8657 5.51206 11.8234 6.15431 11.8962 6.77924C11.9046 6.8511 11.8697 6.90124 11.8483 6.92467C11.8105 6.96594 11.7571 6.98956 11.7016 6.98956C11.6954 6.98956 11.6891 6.98923 11.6827 6.98866C7.9089 6.64683 4.50589 4.8742 2.10044 1.99736C1.97777 1.8506 1.74249 1.86863 1.64474 2.03214C1.1737 2.81998 0.924804 3.72121 0.924804 4.6382C0.924804 6.04359 1.50387 7.36795 2.5098 8.33347C2.08672 8.2357 1.67736 8.08171 1.29706 7.87572C1.11305 7.77606 0.886696 7.90417 0.884064 8.10933C0.857744 10.1971 2.11144 12.0548 3.98952 12.8913C3.95163 12.8923 3.91389 12.8926 3.87589 12.8926C3.57822 12.8926 3.27678 12.8646 2.98014 12.8093C2.77292 12.7707 2.59884 12.9624 2.66327 13.1582C3.27277 15.0138 4.91147 16.3814 6.8724 16.6921C5.24495 17.7572 3.34969 18.3191 1.37717 18.3191L0.76218 18.3187C0.572788 18.3187 0.412572 18.4391 0.364272 18.618C0.316672 18.7943 0.404312 18.9802 0.5659 19.0718C2.78857 20.333 5.32391 20.9996 7.89893 20.9996C10.1528 20.9996 12.2612 20.5634 14.1655 19.7034C15.9112 18.915 17.4538 17.7879 18.7506 16.3535C19.9586 15.0173 20.9032 13.4749 21.5581 11.769C22.1824 10.1429 22.5125 8.40783 22.5125 6.75137V6.67245C22.5124 6.40646 22.6357 6.15617 22.8511 5.98586C23.6679 5.33924 24.3792 4.57801 24.9652 3.72346C25.1199 3.49777 24.8759 3.21498 24.6213 3.32506Z" fill="white"/>
</svg>
