<svg width="13" height="21" viewBox="0 0 13 21" fill="none" xmlns="http://www.w3.org/2000/svg">
<path fill-rule="evenodd" clip-rule="evenodd" d="M11.7056 1.00198L9.03671 0.998047C6.03871 0.998047 4.10065 2.93032 4.10065 5.92046V8.19038H1.41713C1.18619 8.19038 0.998047 8.37217 0.998047 8.59766V11.8867C0.998047 12.1111 1.18619 12.294 1.41713 12.294H4.10065V20.592C4.10065 20.8164 4.28879 20.9993 4.52077 20.9993H8.0206C8.25257 20.9993 8.44072 20.8164 8.44072 20.592V12.294H11.578C11.81 12.294 11.9973 12.1111 11.9973 11.8867L11.9991 8.59766C11.9991 8.49004 11.9543 8.38645 11.8758 8.30922C11.7974 8.233 11.6908 8.19038 11.579 8.19038H8.44072V6.26613C8.44072 5.34148 8.66765 4.87201 9.90647 4.87201L11.7046 4.87097C11.9365 4.87097 12.1237 4.6881 12.1237 4.46364V1.41055C12.1237 1.18478 11.9365 1.00299 11.7056 1.00198Z" fill="white"/>
</svg>
