<svg width="20" height="20" viewBox="0 0 20 20" fill="none" xmlns="http://www.w3.org/2000/svg">
<path fill-rule="evenodd" clip-rule="evenodd" d="M14.0566 17.7393C16.207 17.7393 17.9473 16.0273 17.9473 13.916V6.08496C17.9473 3.97363 16.207 2.26172 14.0566 2.26172H6.08789C3.93945 2.26172 2.19727 3.97363 2.19727 6.08496V13.916C2.19727 16.0273 3.93945 17.7393 6.08789 17.7393H14.0566ZM6.08789 0.3125H14.0566C17.2969 0.3125 19.9316 2.90137 19.9316 6.08496V13.916C19.9316 17.0986 17.2969 19.6875 14.0566 19.6875H6.08789C2.84766 19.6875 0.212891 17.0986 0.212891 13.916V6.08496C0.212891 2.90137 2.84766 0.3125 6.08789 0.3125ZM6.95508 10C6.95508 11.6914 8.35156 13.0625 10.0723 13.0625C11.793 13.0625 13.1895 11.6914 13.1895 10C13.1895 8.30957 11.793 6.93848 10.0723 6.93848C8.35156 6.93848 6.95508 8.30957 6.95508 10ZM4.97266 10C4.97266 7.2373 7.25977 4.98926 10.0723 4.98926C12.8848 4.98926 15.1719 7.2373 15.1719 10C15.1719 12.7637 12.8848 15.0117 10.0723 15.0117C7.25977 15.0117 4.97266 12.7637 4.97266 10ZM16.4043 5.02637C16.4043 4.36328 15.8574 3.8252 15.1816 3.8252C14.9629 3.8252 14.7578 3.88184 14.5801 3.98047C14.2109 4.18652 13.9609 4.57812 13.9609 5.02637C13.9609 5.68945 14.5078 6.22754 15.1816 6.22754C15.8574 6.22754 16.4043 5.68945 16.4043 5.02637Z" fill="white"/>
</svg>
