<svg width="22" height="20" viewBox="0 0 22 20" fill="none" xmlns="http://www.w3.org/2000/svg">
<path fill-rule="evenodd" clip-rule="evenodd" d="M3.41602 0.3125C1.90039 0.3125 0.908203 1.28809 0.908203 2.57031C0.908203 3.82617 1.87109 4.83008 3.35742 4.83008H3.38672C4.93359 4.83008 5.89453 3.82617 5.89453 2.57031C5.86523 1.28809 4.93359 0.3125 3.41602 0.3125ZM21.5801 12.1904V19.6875H17.1484V12.6934C17.1484 11.585 16.8945 10.6992 16.3047 10.1963C15.959 9.90137 15.498 9.7373 14.9043 9.7373C13.6797 9.7373 12.9531 10.5449 12.6309 11.3271C12.5156 11.6064 12.4844 11.9951 12.4844 12.3867V19.6875H8.05273C8.05273 19.6875 8.07227 15.8965 8.07812 12.3809C8.08203 9.68262 8.07812 7.14648 8.05273 6.61426H12.4844V8.4668C13.0742 7.57812 14.125 6.30762 16.4785 6.30762C19.3945 6.30762 21.5801 8.17578 21.5801 12.1904ZM5.60156 19.6875H1.17188V6.61426H5.60156V19.6875Z" fill="white"/>
</svg>
