<svg width="26" height="21" viewBox="0 0 26 21" fill="none" xmlns="http://www.w3.org/2000/svg">
<path fill-rule="evenodd" clip-rule="evenodd" d="M16.2,22.7v-4.1c0-1.4-0.5-2.3-1-2.8c3.3-0.4,6.8-1.6,6.8-7.3c0-1.6-0.6-3-1.5-4c0.2-0.4,0.7-1.9-0.1-3.9
	c0,0-1.2-0.4-4.1,1.5c-1.2-0.3-2.5-0.5-3.7-0.5c-1.3,0-2.5,0.2-3.7,0.5C5.9,0.2,4.7,0.6,4.7,0.6c-0.8,2-0.3,3.6-0.1,3.9
	c-1,1-1.5,2.4-1.5,4c0,5.7,3.5,7,6.8,7.4c-0.4,0.4-0.8,1-0.9,2c-0.8,0.4-3,1-4.3-1.2c0,0-0.8-1.4-2.3-1.5c0,0-1.5,0-0.1,0.9
	c0,0,1,0.5,1.7,2.2c0,0,0.9,2.7,5,1.8v2.8c0,0.2-0.1,0.4-0.3,0.6l8,0C16.3,23.1,16.2,22.9,16.2,22.7z" fill="white"/>
</svg>